<?xml version="1.0"?>
<svg width="1000" height="1000" xmlns="http://www.w3.org/2000/svg" xmlns:svg="http://www.w3.org/2000/svg">
 <title>109-map-location</title>

 <g class="layer">
  <title>Layer 1</title>
  <path d="m793.43,662.59l-137.69,86.83a56.95,56.95 0 0 1 -47.81,6.05l-150.93,-48.52a56.95,56.95 0 0 0 -48.07,6.22l-110.5,70.54a25.81,25.81 0 0 1 -38.6,-14.74l-95.37,-334.34a25.81,25.81 0 0 1 11.03,-28.89l139.16,-87.95a62.36,62.36 0 0 1 52.4,-6.66l146.11,46.97a62.37,62.37 0 0 0 52.57,-6.76l104.64,-66.59a25.81,25.81 0 0 1 38.67,14.7l95.35,334.29a25.81,25.81 0 0 1 -10.96,28.85z" fill="#cccdcf" id="svg_2" opacity="0.4" transform="translate(0)"/>
  <path d="m798.81,627.11l-117.58,74.82a62.37,62.37 0 0 1 -52.57,6.76l-146.12,-46.97a62.37,62.37 0 0 0 -52.4,6.65l-126.34,79.85a25.81,25.81 0 0 1 -38.6,-14.73l-95.37,-334.34a25.81,25.81 0 0 1 11.03,-28.9l139.15,-87.95a62.37,62.37 0 0 1 52.4,-6.65l146.13,46.97a62.36,62.36 0 0 0 52.56,-6.76l104.64,-66.59a25.81,25.81 0 0 1 38.67,14.69l95.36,334.29a25.81,25.81 0 0 1 -10.96,28.86z" fill="#fff" id="svg_3" transform="translate(0)"/>
  <path d="m468.51,623.93l-21.86,-61.69l-103.32,35.37l-32.31,-93.61l-84.15,16.75l59,206.84a4.33,4.33 0 0 0 4.19,3.13a4.11,4.11 0 0 0 2.25,-0.68l120.11,-75.91c-0.52,-0.61 56.09,-30.2 56.09,-30.2z" fill="#eaf4f7" id="svg_4" transform="translate(0)"/>
  <path d="m798.81,627.11l-117.58,74.82a62.37,62.37 0 0 1 -52.57,6.76l-146.12,-46.97a62.37,62.37 0 0 0 -52.4,6.65l-126.34,79.85a25.81,25.81 0 0 1 -38.6,-14.73l-95.37,-334.34a25.81,25.81 0 0 1 11.03,-28.9l139.15,-87.95a62.37,62.37 0 0 1 52.4,-6.65l146.13,46.97a62.36,62.36 0 0 0 52.56,-6.76l104.64,-66.59a25.81,25.81 0 0 1 38.67,14.69l95.36,334.29a25.81,25.81 0 0 1 -10.96,28.86z" fill="none" id="svg_5" stroke="#363a5a" stroke-miterlimit="10" stroke-width="6px" transform="translate(0)"/>
  <path d="m360.07,585.58s1.79,-0.47 4.81,-1.35" fill="none" id="svg_6" stroke="#363a5a" stroke-linecap="round" stroke-linejoin="round" stroke-width="4px" transform="translate(0)"/>
  <path d="m379.42,579.57c21.23,-7.39 52.39,-20.94 52.76,-36.97c0.5,-21.3 -102.73,-127.87 -47.23,-134.31c185.29,-21.51 102.27,132.6 186.77,129.15c35.7,-1.45 -30.32,-50.53 71.68,-86.01c15.13,-5.26 7.61,-43.72 2.54,-63.83" fill="none" id="svg_7" stroke="#363a5a" stroke-dasharray="10.176137924194336,15.264206886291504" stroke-linecap="round" stroke-linejoin="round" stroke-width="4px" transform="translate(0)"/>
  <path d="m643.98,380.23c-0.85,-3.02 -1.4,-4.8 -1.4,-4.8" fill="none" id="svg_8" stroke="#363a5a" stroke-linecap="round" stroke-linejoin="round" stroke-width="4px" transform="translate(0)"/>
  <circle cx="353.61" cy="588.18" fill="#3dc0cb" id="svg_9" opacity="0.22" r="48.19"/>
  <circle cx="353.61" cy="588.18" fill="#3dc0cb" id="svg_10" r="27.95"/>
  <path d="m353.61,560.23a27.9,27.9 0 0 0 -22.16,10.93a27.94,27.94 0 0 1 37.86,40.13a27.95,27.95 0 0 0 -15.7,-51.06z" fill="#64c7cf" id="svg_11" transform="translate(0)"/>
  <circle cx="353.61" cy="588.18" fill="none" id="svg_12" r="27.95" stroke="#363a5a" stroke-miterlimit="10" stroke-width="6px"/>
  <path d="m366.35,338.84l80.15,15.19l-18.41,-32.35l-66.34,-23.14a30.94,30.94 0 0 0 -23.64,1.35l-145.77,88.54a4.33,4.33 0 0 0 -1.84,4.82l23.51,82.41l64.09,-15.85l-11.77,-47.21l100.02,-73.76z" fill="#87d5f7" id="svg_13" stroke="#259ad6" stroke-linecap="round" stroke-linejoin="round" stroke-width="4px" transform="translate(0)"/>
  <polygon fill="#fddcbf" id="svg_14" points="493.37 542.929 539.109 554.445 561.222 605.126 511.949 597.049 493.37 542.929" stroke="#ecb072" stroke-linecap="round" stroke-linejoin="round" stroke-width="4px"/>
  <path d="m643.43,391.11c-37.16,0 -67.28,-10.78 -67.28,-24.07s30.12,-24.07 67.28,-24.07s67.27,10.78 67.27,24.07s-30.12,24.07 -67.27,24.07z" fill="#eaf4f7" id="svg_15" transform="translate(0)"/>
  <polygon fill="#fddcbf" id="svg_16" points="664.538 527.486 748.465 490.952 781.62 591.961 645.718 669.193 620.808 598.893 673.948 569.002 664.538 527.486" stroke="#ecb072" stroke-linecap="round" stroke-linejoin="round" stroke-width="4px"/>
  <path d="m742.48,249.68c0,-57.8 -46.91,-104.34 -103.76,-101.64c-50.9,2.42 -94.29,45.78 -94.29,98.12c0,75.72 99,134.1 99,134.1s99.05,-58.38 99.05,-130.58z" fill="#ee4637" id="svg_17" transform="translate(0)"/>
  <path d="m679.59,350.96a44.19,44.19 0 0 1 -54.6,-0.18c-29.3,-23.2 -71.68,-65.33 -71.68,-114.86a96.3,96.3 0 0 1 19.81,-58.17c-17.58,17.74 -28.69,41.93 -28.69,68.41c0,75.72 99,134.1 99,134.1s40.37,-23.8 69.57,-59.8a282.96,282.96 0 0 1 -33.41,30.5z" fill="#cd3c27" id="svg_18" transform="translate(0)"/>
  <path d="m638.72,148.04a97.98,97.98 0 0 0 -49.9,16.72a96.75,96.75 0 0 1 37.23,-9.48c56.85,-2.7 103.77,43.84 103.77,101.64c0,56.61 -60.9,104.72 -87.2,122.86c0.52,0.32 0.8,0.49 0.8,0.49s99.06,-58.39 99.06,-130.59c0,-57.8 -46.91,-104.34 -103.76,-101.64z" fill="#f07378" id="svg_19" transform="translate(0)"/>
  <path d="m643.43,288.61a40.76,40.76 0 1 1 40.75,-40.76a40.76,40.76 0 0 1 -40.75,40.76z" fill="#fff" id="svg_20" transform="translate(0)"/>
  <path d="m643.43,288.61a40.76,40.76 0 1 1 40.75,-40.76a40.76,40.76 0 0 1 -40.75,40.76z" fill="none" id="svg_21" stroke="#363a5a" stroke-miterlimit="10" stroke-width="6px" transform="translate(0)"/>
  <path d="m742.48,249.68c0,-57.8 -46.91,-104.34 -103.76,-101.64c-50.9,2.42 -94.29,45.78 -94.29,98.12c0,75.72 99,134.1 99,134.1s99.05,-58.38 99.05,-130.58z" fill="none" id="svg_22" stroke="#363a5a" stroke-linecap="round" stroke-linejoin="round" stroke-width="6px" transform="translate(0)"/>
 </g>
</svg>