<svg width="141" height="32" viewBox="0 0 141 32" fill="none" xmlns="http://www.w3.org/2000/svg">
<path d="M14.8138 16.0753C14.5537 15.6064 14.8753 15.0173 15.3915 15.0173H23.8663C24.3824 15.0173 24.704 15.6062 24.444 16.0752L20.2077 23.7161C19.9497 24.1815 19.3104 24.1816 19.0523 23.7163L14.8138 16.0753Z" fill="#5243FE"/>
<path d="M8.34225 13.0066C10.7814 13.0066 12.7588 10.9812 12.7588 8.48268C12.7588 5.98418 10.7814 3.95874 8.34225 3.95874C5.90312 3.95874 3.92578 5.98418 3.92578 8.48268C3.92578 10.9812 5.90312 13.0066 8.34225 13.0066Z" fill="#08C270"/>
<path d="M3.92578 16.007C3.92578 15.4604 4.36517 15.0173 4.90722 15.0173H11.7773C12.3193 15.0173 12.7588 15.4604 12.7588 16.007V23.0755C12.7588 23.6221 12.3193 24.0652 11.7773 24.0652H4.90722C4.36517 24.0652 3.92578 23.6221 3.92578 23.0755V16.007Z" fill="#2AC8F4"/>
<path d="M47.8656 18.2042C47.8656 19.2212 47.5159 20.431 46.9284 21.0684C46.295 21.732 45.4768 22.2185 44.5647 22.4739C43.5067 22.7861 42.4023 22.8369 41.2926 22.8252H32.3877V5.69463H42.9032C43.6981 5.67444 44.4787 5.89609 45.1271 6.32618C45.7464 6.7468 46.2387 7.30954 46.5567 7.95993C46.8852 8.6089 47.0553 9.31772 47.0553 10.0355C47.0563 10.83 46.8374 11.6113 46.42 12.3037C45.9796 13.0374 45.2933 13.6156 44.4663 13.9493C45.4385 14.1929 46.3022 14.7195 46.9316 15.4526C47.5794 16.2389 47.9101 17.2131 47.8656 18.2042ZM37.3564 9.65299V12.2533H40.7558C40.9727 12.2537 41.1879 12.2175 41.3911 12.1466C41.6031 12.0708 41.7827 11.9323 41.9024 11.7522C42.0536 11.5068 42.1242 11.2253 42.1059 10.9428C42.1196 10.6827 42.063 10.4237 41.9407 10.1896C41.8416 10.018 41.6901 9.87762 41.5053 9.7864C41.3204 9.69585 41.114 9.64999 40.9049 9.65299H37.3564ZM42.7573 17.3354C42.7638 17.0769 42.7072 16.8204 42.5917 16.5853C42.4913 16.3818 42.3372 16.2054 42.1439 16.0723C41.9512 15.9423 41.7179 15.8747 41.4801 15.8796H37.3498V19.0166H41.2831C41.5406 19.0194 41.7951 18.9624 42.0231 18.8506C42.2423 18.7403 42.4239 18.575 42.5475 18.3732C42.6827 18.0419 42.7507 17.69 42.7474 17.3354H42.7573Z" fill="#0C0F14"/>
<path d="M55.0768 9.41878H54.7582C54.098 9.42237 53.4548 9.66719 52.915 10.1202C52.301 10.6376 51.8041 11.3278 51.4677 12.1295V9.83837H48.8355C48.8015 10.7924 48.5784 11.7232 48.1852 12.5552C48.09 12.7536 47.9843 12.9449 47.8691 13.128V13.6732C48.1017 13.9056 48.3154 14.164 48.5067 14.445C49.1414 15.4068 49.463 16.6472 49.463 18.142C49.5003 19.3681 49.1571 20.5677 48.4989 21.5112C48.3075 21.7694 48.0965 22.0062 47.8691 22.2187V22.8267H51.7995V14.9381C52.1587 14.4383 52.6451 14.092 53.1849 13.9519C53.8566 13.7449 54.5478 13.642 55.2414 13.6456V9.43102C55.1871 9.42016 55.1321 9.41607 55.0768 9.41878Z" fill="#0C0F14"/>
<path d="M67.3238 13.9123C67.0283 13.1092 66.5726 12.3783 65.9864 11.7664C65.3645 11.1244 64.6192 10.6223 63.7981 10.292C62.832 9.91347 61.8045 9.72926 60.771 9.74942C59.7415 9.73055 58.7182 9.91364 57.7557 10.2889C57.3847 10.4439 57.0275 10.6305 56.6869 10.8468V15.0679H55.4719C54.9364 15.0645 54.4018 15.1107 53.8748 15.2058C53.8028 15.6176 53.7668 16.0351 53.7672 16.4535C53.7636 17.3179 53.9163 18.1755 54.218 18.9825C54.5179 19.7833 54.9727 20.5133 55.5553 21.1283C56.1772 21.7792 56.9274 22.2862 57.7557 22.615C58.7182 22.9903 59.7415 23.1733 60.771 23.1545C61.8038 23.1786 62.8314 22.9985 63.7981 22.6242C64.6215 22.2927 65.3671 21.786 65.9864 21.1375C66.569 20.5225 67.0238 19.7925 67.3238 18.9916C67.6238 18.1842 67.7765 17.3269 67.7746 16.4627C67.7775 15.5914 67.6247 14.7269 67.3238 13.9123ZM62.7561 17.9034C62.5818 18.2881 62.303 18.6129 61.953 18.8384C61.6016 19.0573 61.197 19.1699 60.7857 19.1633C60.3748 19.1699 59.9702 19.0573 59.6185 18.8384C59.2684 18.6129 58.9897 18.2881 58.8153 17.9034C58.6092 17.4499 58.5072 16.9539 58.517 16.4535C58.5068 15.9531 58.6089 15.457 58.8153 15.0036C58.992 14.6245 59.2707 14.3053 59.6185 14.0839C59.9695 13.8636 60.3745 13.7509 60.7857 13.759C61.197 13.7509 61.602 13.8636 61.953 14.0839C62.3008 14.3053 62.5795 14.6245 62.7561 15.0036C62.9626 15.457 63.0646 15.9531 63.0548 16.4535C63.0643 16.9539 62.9622 17.4499 62.7561 17.9034Z" fill="#0C0F14"/>
<path d="M78.2984 17.0117C77.8639 16.5102 77.2947 16.1178 76.6453 15.8722C75.7093 15.4968 74.7436 15.1854 73.7563 14.9406C73.3552 14.8351 73.0284 14.7385 72.7663 14.6477C72.5583 14.5884 72.3643 14.495 72.1935 14.3723C72.1349 14.3244 72.0882 14.2656 72.0568 14.1999C72.0257 14.1341 72.0103 14.063 72.0126 13.9915C72.0044 13.8591 72.0505 13.7288 72.1418 13.6253C72.2436 13.5245 72.3747 13.4523 72.5203 13.4173C72.7104 13.3672 72.908 13.3435 73.1059 13.347C73.6558 13.3619 74.1983 13.4661 74.7073 13.6546C75.4735 13.9379 76.2089 14.2851 76.9041 14.6916L78.7803 11.9584C77.999 11.3266 77.0814 10.8488 76.0856 10.5551C75.1882 10.2994 74.2535 10.168 73.313 10.1655C72.2269 10.1382 71.1476 10.3283 70.1521 10.7221C69.4167 11.0193 68.7748 11.4786 68.2857 12.058C68.6858 12.5572 69.0123 13.1019 69.2561 13.678C69.6326 14.5783 69.8246 15.5334 69.8223 16.4962C69.8223 16.7657 69.8027 17.0352 69.7736 17.3017C70.4596 17.5742 71.2876 17.8613 72.2681 18.1806C72.6852 18.289 73.0284 18.3886 73.297 18.4735C73.508 18.5425 73.7056 18.6414 73.8822 18.7665C73.9401 18.8074 73.9866 18.86 74.018 18.92C74.0494 18.98 74.0651 19.0458 74.0635 19.1122C74.069 19.1924 74.0471 19.2723 74.0007 19.3409C73.9545 19.4096 73.8862 19.4637 73.8047 19.496C73.5482 19.5852 73.2737 19.6242 72.9993 19.6102C72.2602 19.5909 71.5317 19.4468 70.8509 19.1854C70.3922 19.0139 69.945 18.8182 69.5116 18.5995C69.4373 18.8397 69.3532 19.0741 69.2528 19.3084C68.9099 20.1118 68.4091 20.8522 67.7744 21.4938C68.3544 21.828 68.9767 22.0975 69.628 22.2965C70.7639 22.6462 71.955 22.8253 73.1543 22.8268C74.9078 22.8268 76.2913 22.4664 77.3052 21.7458C77.8047 21.3938 78.2035 20.9385 78.4688 20.4181C78.7338 19.8977 78.8575 19.3273 78.829 18.7548C78.8617 18.1374 78.6759 17.5267 78.2984 17.0117Z" fill="#0C0F14"/>
<path d="M79.091 5.69348L85.1111 20.9096L91.1107 5.69348H92.8403L85.9224 22.8268H84.4048L77.3584 5.69348H79.091Z" fill="#0C0F14"/>
<path d="M90.6301 19.0597C90.6124 18.3439 90.864 17.6446 91.3416 17.0814C91.8628 16.4965 92.5442 16.0518 93.3147 15.7937C94.2461 15.4742 95.2337 15.3193 96.2269 15.3371C96.8992 15.3401 97.5702 15.388 98.2349 15.4805C98.8693 15.5596 99.4928 15.7019 100.094 15.9049V14.8777C100.118 14.4269 100.043 13.9763 99.872 13.5536C99.7012 13.1309 99.4388 12.7449 99.1012 12.4194C98.4394 11.8106 97.5234 11.5063 96.3535 11.5063C95.6351 11.508 94.9236 11.632 94.2539 11.8721C93.4946 12.1508 92.7729 12.5102 92.1036 12.9432L92.9663 11.0379C92.9663 11.0379 93.0857 10.8852 93.9883 10.5756C94.7996 10.3045 95.6554 10.1648 96.5178 10.163C98.1453 10.163 99.4343 10.5922 100.385 11.4507C101.336 12.3091 101.812 13.4924 101.814 15.0006L101.789 20.7647C101.773 20.9366 101.827 21.1078 101.941 21.2446C102.072 21.3585 102.245 21.4214 102.425 21.4202V22.6903C102.249 22.7401 102.072 22.7401 101.941 22.7401C101.835 22.7401 101.745 22.7377 101.625 22.7401C101.444 22.7436 101.264 22.7119 101.097 22.6468C100.931 22.5818 100.78 22.4849 100.657 22.3626C100.45 22.155 100.324 21.8891 100.3 21.6075V20.605C99.6888 21.3215 98.8928 21.8841 97.985 22.2409C97.0729 22.6206 96.0853 22.82 95.0855 22.8262C94.285 22.8375 93.4939 22.6646 92.7834 22.3229C92.1255 22.0138 91.571 21.5443 91.1804 20.9649C90.8028 20.392 90.6118 19.7306 90.6301 19.0597ZM99.5092 19.9904C99.679 19.7972 99.8232 19.586 99.939 19.3612C100.033 19.1954 100.086 19.0125 100.094 18.8256V17.0521C99.5118 16.8497 98.9121 16.693 98.3014 16.5838C97.684 16.4762 97.0572 16.4223 96.4294 16.4229C95.3799 16.3786 94.3386 16.6132 93.4285 17.0989C93.0765 17.2828 92.7844 17.5511 92.5828 17.8755C92.3816 18.1999 92.2783 18.5685 92.2838 18.9427C92.2829 19.3901 92.414 19.8294 92.6633 20.2128C92.9368 20.6251 93.3228 20.9633 93.7828 21.1932C94.3141 21.4591 94.9115 21.5922 95.5154 21.5795C96.3162 21.5844 97.1096 21.4328 97.8427 21.1347C98.4927 20.8881 99.0659 20.4947 99.5092 19.9904Z" fill="#0C0F14"/>
<path d="M118.688 22.8262C117.874 22.8328 117.067 22.661 116.32 22.3222C115.607 21.9954 114.964 21.5241 114.43 20.9361C113.896 20.3453 113.475 19.6553 113.19 18.9024C112.89 18.1182 112.739 17.2814 112.746 16.438C112.736 15.3416 112.998 14.2609 113.507 13.2995C114.005 12.3613 114.732 11.5751 115.615 11.0197C116.534 10.4434 117.592 10.1468 118.666 10.164C119.747 10.1429 120.811 10.4484 121.728 11.0431C122.591 11.6106 123.3 12.3962 123.788 13.3259C124.291 14.2767 124.55 15.3451 124.541 16.4292V16.7925C124.543 16.883 124.535 16.9734 124.518 17.0621H114.362C114.42 17.8913 114.666 18.6946 115.08 19.4064C115.467 20.072 116.007 20.6285 116.651 21.027C117.288 21.4186 118.016 21.6214 118.757 21.613C119.528 21.6138 120.287 21.4014 120.953 20.9976C121.595 20.6462 122.104 20.0817 122.399 19.3947L123.747 19.4165C123.536 20.1831 123.104 20.9142 122.628 21.3522C122.114 21.8329 121.514 22.2051 120.862 22.4482C120.165 22.7081 119.429 22.8361 118.688 22.8262ZM114.317 15.8929H123.089C123.047 15.0641 122.808 14.2589 122.393 13.5486C122.006 12.8953 121.466 12.354 120.822 11.975C120.175 11.5882 119.441 11.386 118.694 11.3889C117.951 11.3844 117.22 11.5868 116.577 11.975C115.936 12.3587 115.399 12.904 115.015 13.5603C114.601 14.2667 114.361 15.0678 114.317 15.8929Z" fill="#0C0F14"/>
<path d="M126.159 26.5788L126.869 26.6132C127.036 26.6251 127.204 26.6135 127.366 26.5788C127.602 26.5339 127.814 26.4208 127.968 26.2574C128.248 25.9334 128.477 25.5772 128.648 25.1985C128.908 24.6763 129.275 23.911 129.748 22.9028L123.804 10.908H125.691L130.688 21.293L135.295 10.908H137.074L130.008 26.3751C129.882 26.6746 129.696 26.9517 129.458 27.1929C129.211 27.4486 128.904 27.6533 128.557 27.7926C128.138 27.9477 127.688 28.0296 127.233 28.0337C127.072 28.0439 126.91 28.0439 126.748 28.0337C126.582 28.0337 126.387 28.005 126.159 27.9763V26.5788Z" fill="#0C0F14"/>
<path d="M109.06 4.94849H110.534V22.8268H109.06V4.94849Z" fill="#0C0F14"/>
<path d="M104.636 4.94849H106.111V22.8268H104.636V4.94849Z" fill="#0C0F14"/>
</svg>
